<svg width="68" height="48" viewBox="0 0 68 48" fill="none" xmlns="http://www.w3.org/2000/svg">
<rect width="68" height="48" rx="8" fill="#BCBCC6"/>
<path d="M47.0204 29.8708C46.8379 29.8708 46.7466 29.7736 46.7466 29.5792V26.0004H42.9886C42.8061 26.0004 42.7148 25.8944 42.7148 25.6823V23.7736C42.7148 23.5615 42.8061 23.4555 42.9886 23.4555H46.7466V19.8767C46.7466 19.6646 46.8379 19.5586 47.0204 19.5586H48.9118C49.0944 19.5586 49.1856 19.6646 49.1856 19.8767V23.4555H52.9436C53.1261 23.4555 53.2174 23.5615 53.2174 23.7736V25.6823C53.2174 25.8944 53.1261 26.0004 52.9436 26.0004H49.1856V29.5792C49.1856 29.7736 49.0944 29.8708 48.9118 29.8708H47.0204Z" fill="#14141A"/>
<path d="M33.1638 33C31.1728 33 29.6381 32.5847 28.5596 31.7541C27.4977 30.9234 26.9668 29.6686 26.9668 27.9897C26.9668 26.8586 27.2157 25.9043 27.7134 25.1267C28.2278 24.349 28.9329 23.7835 29.8289 23.43C29.132 23.0943 28.6011 22.6171 28.2361 21.9985C27.8876 21.3623 27.7134 20.5317 27.7134 19.5066C27.7134 18.0928 28.178 16.9882 29.1071 16.1929C30.0363 15.3976 31.3885 15 33.1638 15C34.9391 15 36.2913 15.3976 37.2205 16.1929C38.1496 16.9882 38.6142 18.0928 38.6142 19.5066C38.6142 20.5317 38.4317 21.3623 38.0666 21.9985C37.7182 22.6171 37.1873 23.0943 36.4738 23.43C37.3864 23.7835 38.0915 24.349 38.5893 25.1267C39.1036 25.9043 39.3608 26.8586 39.3608 27.9897C39.3608 29.6686 38.8216 30.9234 37.7431 31.7541C36.6812 32.5847 35.1548 33 33.1638 33ZM33.1638 30.4286C34.2423 30.4286 35.047 30.2077 35.5779 29.7658C36.1254 29.324 36.3992 28.6966 36.3992 27.8837V27.486C36.3992 26.567 36.1088 25.8689 35.5281 25.3918C34.964 24.8969 34.1759 24.6495 33.1638 24.6495C32.1517 24.6495 31.3553 24.8969 30.7746 25.3918C30.2105 25.8689 29.9284 26.567 29.9284 27.486V27.8837C29.9284 28.6966 30.1939 29.324 30.7248 29.7658C31.2723 30.2077 32.0853 30.4286 33.1638 30.4286ZM33.1638 22.3432C33.9934 22.3432 34.6239 22.1487 35.0552 21.7599C35.5032 21.3535 35.7272 20.7968 35.7272 20.0898V19.6922C35.7272 19.0206 35.5032 18.4904 35.0552 18.1016C34.6239 17.6951 33.9934 17.4919 33.1638 17.4919C32.3342 17.4919 31.6954 17.6951 31.2475 18.1016C30.8161 18.4904 30.6004 19.0206 30.6004 19.6922V20.0898C30.6004 20.7968 30.8161 21.3535 31.2475 21.7599C31.6954 22.1487 32.3342 22.3432 33.1638 22.3432Z" fill="#14141A"/>
<path d="M15.055 32.6897C14.8725 32.6897 14.7812 32.5836 14.7812 32.3716V30.2508C14.7812 30.0564 14.8725 29.9592 15.055 29.9592H18.8379V18.6661L15.2292 19.859C15.0301 19.9297 14.9306 19.8502 14.9306 19.6205V17.5262C14.9306 17.3495 14.9969 17.2346 15.1297 17.1816L20.6298 15.2729C20.6962 15.2552 20.7626 15.2375 20.8289 15.2199C20.9119 15.2022 20.9865 15.1934 21.0529 15.1934H21.5009C21.6834 15.1934 21.7747 15.2994 21.7747 15.5115V29.9592H25.1842C25.3833 29.9592 25.4829 30.0564 25.4829 30.2508V32.3716C25.4829 32.5836 25.3833 32.6897 25.1842 32.6897H15.055Z" fill="#14141A"/>
</svg>
