<svg width="68" height="48" viewBox="0 0 68 48" fill="none" xmlns="http://www.w3.org/2000/svg">
<g clip-path="url(#clip0_1619_12916)">
<rect x="1.5" y="1.5" width="65.9855" height="45" fill="#BCBCC6" stroke="#BCBCC6" stroke-width="3"/>
<path d="M39.9996 15.2637C39.5239 14.7982 38.9104 14.4362 38.1761 14.1872C37.4484 13.9411 36.5744 13.8166 35.5787 13.8166C34.9409 13.8137 34.3034 13.8473 33.6694 13.9171C33.1407 13.977 32.6138 14.0521 32.0894 14.1422L31.9355 14.169V31.0888H33.4579V23.9606C33.9704 24.0497 34.5575 24.0966 35.205 24.0966C36.0667 24.0966 36.8736 23.9845 37.6042 23.7652C38.307 23.5624 38.9616 23.216 39.5277 22.7472C40.0729 22.2847 40.5114 21.7063 40.8122 21.053C41.1237 20.3826 41.2822 19.5944 41.2822 18.7076C41.2822 17.974 41.168 17.3141 40.9453 16.7462C40.73 16.1933 40.4085 15.6894 39.9996 15.2637ZM38.6008 21.7263C37.8194 22.3909 36.7132 22.728 35.3097 22.728C34.9237 22.728 34.5584 22.7108 34.2234 22.6792C33.9657 22.6555 33.7101 22.612 33.4589 22.5489V15.3537C33.6599 15.3163 33.9091 15.2809 34.2017 15.2493C34.5726 15.2091 35.019 15.189 35.5306 15.189C36.1181 15.183 36.7035 15.2601 37.27 15.4179C37.7529 15.5526 38.2065 15.7781 38.6074 16.0825C38.9727 16.3698 39.2596 16.7433 39.4588 17.1934C39.6598 17.6493 39.7608 18.1933 39.7608 18.8091C39.7599 20.0876 39.3691 21.0693 38.6008 21.7263ZM50.3817 29.5047C50.3647 29.0259 50.3581 28.5451 50.3581 28.0663V23.363C50.3581 22.8056 50.3024 22.2367 50.1938 21.6717C50.0892 21.1094 49.8749 20.5741 49.5634 20.0972C49.2538 19.626 48.8206 19.2372 48.2788 18.9403C47.7371 18.6444 47.033 18.495 46.1845 18.495C45.5653 18.495 44.9603 18.5764 44.3893 18.7382C43.7897 18.9132 43.2225 19.1869 42.7103 19.5484L42.5866 19.6356L43.101 20.8567L43.2869 20.7293C43.6929 20.4528 44.1369 20.2385 44.6045 20.0934C45.0771 19.9433 45.5694 19.8665 46.0646 19.8654C46.6989 19.8654 47.2057 19.9823 47.5672 20.2121C47.9343 20.4449 48.2109 20.7331 48.3892 21.0702C48.5752 21.4179 48.6969 21.7876 48.7507 22.1716C48.8083 22.571 48.8357 22.9282 48.8357 23.2346V23.3706C46.579 23.3601 44.8169 23.7413 43.6465 24.5065C42.4186 25.309 41.7957 26.4516 41.7957 27.9015C41.7957 28.3191 41.8693 28.7395 42.0147 29.1552C42.1619 29.5756 42.3856 29.952 42.6782 30.2738C42.9726 30.5994 43.353 30.8647 43.8079 31.0629C44.261 31.2631 44.7942 31.3636 45.3898 31.3636C46.233 31.378 47.0627 31.1477 47.7814 30.7C48.0948 30.5036 48.3732 30.2805 48.611 30.0401C48.7125 29.9367 48.8091 29.8287 48.9008 29.7164H48.9593L49.099 31.0897H50.5667L50.5261 30.8695C50.4455 30.4187 50.3972 29.9626 50.3817 29.5047ZM48.8357 27.0952C48.8357 27.2599 48.797 27.4859 48.7234 27.7569C48.6248 28.0502 48.487 28.3283 48.3137 28.5834C47.9282 29.1563 47.3682 29.5852 46.7196 29.8045C46.326 29.9358 45.9136 29.9996 45.4993 29.9932C45.226 29.9932 44.9548 29.9463 44.697 29.8543C44.4468 29.766 44.2171 29.6265 44.0222 29.4444C43.818 29.2485 43.6566 29.0113 43.5484 28.7482C43.4285 28.4675 43.3681 28.1199 43.3681 27.7157C43.3681 27.054 43.5436 26.5167 43.8881 26.124C44.2591 25.7056 44.725 25.3851 45.2454 25.1903C45.8349 24.9653 46.4518 24.8226 47.0792 24.766C47.663 24.7089 48.2493 24.683 48.8357 24.6884V27.0952ZM60.7137 18.7698L57.8728 26.6067C57.6954 27.0798 57.5302 27.5568 57.3792 28.0213C57.3056 28.253 57.2357 28.4723 57.1668 28.6811H57.113C57.0421 28.4524 56.9697 28.2241 56.8959 27.9963C56.7487 27.5367 56.5901 27.0856 56.4278 26.6556L53.3896 18.7698H51.7653L56.1116 30.1071C56.2258 30.3801 56.2428 30.5055 56.2428 30.5563C56.2428 30.5716 56.2372 30.6645 56.1097 31.0093C55.8723 31.6245 55.5627 32.2085 55.1876 32.7485C54.8393 33.2292 54.5203 33.62 54.2362 33.9083C53.9059 34.2435 53.5652 34.5183 53.2188 34.7261C52.8649 34.9378 52.5421 35.1092 52.2561 35.2385L52.0919 35.3132L52.6214 36.6186L52.7894 36.5554C52.9272 36.5027 53.1858 36.383 53.5784 36.1886C53.9748 35.9903 54.4137 35.6762 54.8818 35.251C55.2967 34.8803 55.665 34.4592 55.9785 33.9973C56.2994 33.53 56.6203 32.9812 56.9356 32.3721C57.247 31.764 57.5585 31.0725 57.8624 30.315C58.1663 29.5536 58.4929 28.7022 58.8298 27.7876L62.3399 18.7698H60.7137Z" fill="#14141A"/>
<path d="M20.6919 10.7968C20.8208 11.9936 20.3468 13.1946 19.6444 14.0588C18.9419 14.9229 17.7908 15.5955 16.6621 15.5069C16.5058 14.3338 17.0722 13.1101 17.7269 12.3459C18.4496 11.4848 19.6768 10.839 20.6919 10.7968Z" fill="#14141A"/>
<path d="M24.739 17.7585C24.6416 17.8203 22.5383 19.0656 22.5607 21.654C22.5911 24.7491 25.2364 25.7729 25.2638 25.7915L25.2634 25.7928C25.2388 25.8777 24.8369 27.2655 23.8752 28.694C23.0337 29.9413 22.1628 31.1784 20.7904 31.2082C19.4454 31.2319 19.0099 30.3935 17.4701 30.3956C15.9272 30.3956 15.4481 31.1835 14.1711 31.234C12.8444 31.2844 11.8375 29.8898 10.9909 28.6487C9.2612 26.1139 7.93958 21.485 9.71088 18.3508C10.5909 16.7986 12.1673 15.8149 13.8767 15.7902C15.1801 15.7624 16.4043 16.675 17.2001 16.675C17.9928 16.675 19.488 15.5801 21.0563 15.7377C21.7121 15.7644 23.5524 16.0075 24.739 17.7585Z" fill="#14141A"/>
</g>
<defs>
<clipPath id="clip0_1619_12916">
<rect width="68" height="48" rx="8" fill="white"/>
</clipPath>
</defs>
</svg>
