<svg width="68" height="48" viewBox="0 0 68 48" fill="none" xmlns="http://www.w3.org/2000/svg">
<g clip-path="url(#clip0_1619_12950)">
<rect x="1.5" y="1.5" width="65.9855" height="45" fill="#BCBCC6" stroke="#BCBCC6" stroke-width="3"/>
<mask id="mask0_1619_12950" style="mask-type:luminance" maskUnits="userSpaceOnUse" x="0" y="-6" width="68" height="58">
<path d="M0 -5.99889H68V51.293H0V-5.99889Z" fill="white"/>
</mask>
<g mask="url(#mask0_1619_12950)">
<path d="M33.5129 25.2016V31.672H31.4883V15.6963H36.8597C38.2244 15.6963 39.3814 16.1579 40.3358 17.0797C41.3061 18.0016 41.79 19.1249 41.79 20.4483C41.79 21.8023 41.3061 22.933 40.3358 23.8396C39.397 24.7473 38.2375 25.2004 36.8597 25.2004H33.5129V25.2016ZM33.5129 17.66V23.2378H36.903C37.7103 23.2378 38.3781 22.9624 38.9067 22.4119C39.4497 21.8624 39.7206 21.2068 39.7206 20.4483C39.7206 19.7052 39.4497 19.0575 38.9067 18.5066C38.3781 17.9416 37.7103 17.6588 36.903 17.6588H33.5129V17.66Z" fill="#14141A"/>
</g>
<mask id="mask1_1619_12950" style="mask-type:luminance" maskUnits="userSpaceOnUse" x="0" y="-6" width="68" height="58">
<path d="M0 -5.99889H68V51.293H0V-5.99889Z" fill="white"/>
</mask>
<g mask="url(#mask1_1619_12950)">
<path d="M46.4627 20.3815C47.9603 20.3815 49.1409 20.7863 50.0073 21.5974C50.8738 22.4086 51.305 23.5199 51.305 24.9327V31.6711H49.3684V30.1544H49.2803C48.4441 31.4031 47.3292 32.0273 45.9355 32.0273C44.747 32.0273 43.7504 31.6711 42.9524 30.9574C42.1518 30.2424 41.752 29.3512 41.752 28.2786C41.752 27.1486 42.1727 26.2495 43.0169 25.5804C43.8609 24.9113 44.9876 24.5758 46.3956 24.5758C47.5987 24.5758 48.59 24.7992 49.367 25.2447V24.7758C49.367 24.0622 49.0883 23.4565 48.5309 22.9582C47.9721 22.4593 47.3213 22.2111 46.572 22.2111C45.4412 22.2111 44.5472 22.6941 43.8872 23.662L42.103 22.5233C43.0878 21.0952 44.5393 20.3815 46.4627 20.3815ZM43.8424 28.3238C43.8424 28.8602 44.066 29.3057 44.5143 29.6634C44.9627 30.0195 45.4858 30.1984 46.088 30.1984C46.9401 30.1984 47.6973 29.878 48.3652 29.2391C49.0332 28.5987 49.367 27.8489 49.367 26.9871C48.736 26.4802 47.855 26.2281 46.7256 26.2281C45.904 26.2281 45.2176 26.4294 44.6681 26.831C44.1186 27.2326 43.8424 27.7289 43.8424 28.3238Z" fill="#14141A"/>
</g>
<mask id="mask2_1619_12950" style="mask-type:luminance" maskUnits="userSpaceOnUse" x="0" y="-6" width="68" height="58">
<path d="M0 -5.99889H68V51.293H0V-5.99889Z" fill="white"/>
</mask>
<g mask="url(#mask2_1619_12950)">
<path d="M62.4191 20.7327L55.6599 36.4843H53.5696L56.0794 30.9732L51.6328 20.7327H53.8351L57.0484 28.5866H57.0917L60.217 20.7327H62.4191Z" fill="#14141A"/>
</g>
<mask id="mask3_1619_12950" style="mask-type:luminance" maskUnits="userSpaceOnUse" x="0" y="-6" width="68" height="58">
<path d="M0 -5.99889H68V51.293H0V-5.99889Z" fill="white"/>
</mask>
<g mask="url(#mask3_1619_12950)">
<path d="M25.3272 23.8008C25.3272 23.1544 25.2733 22.5307 25.1713 21.9338H16.6309V25.4692H21.5224C21.3126 26.6217 20.6776 27.6022 19.7139 28.2587V30.5546H22.6333C24.3426 28.9563 25.3272 26.5938 25.3272 23.8008Z" fill="#14141A"/>
</g>
<mask id="mask4_1619_12950" style="mask-type:luminance" maskUnits="userSpaceOnUse" x="0" y="-6" width="68" height="58">
<path d="M0 -5.99889H68V51.293H0V-5.99889Z" fill="white"/>
</mask>
<g mask="url(#mask4_1619_12950)">
<path d="M16.6308 32.7773C19.0749 32.7773 21.1324 31.9635 22.6332 30.5601L19.7138 28.2642C18.9014 28.8192 17.8548 29.1434 16.6308 29.1434C14.2688 29.1434 12.2638 27.5291 11.5466 25.3539H8.53906V27.7185C10.0294 30.7176 13.0928 32.7773 16.6308 32.7773Z" fill="#14141A"/>
</g>
<mask id="mask5_1619_12950" style="mask-type:luminance" maskUnits="userSpaceOnUse" x="0" y="-6" width="68" height="58">
<path d="M0 -5.99889H68V51.293H0V-5.99889Z" fill="white"/>
</mask>
<g mask="url(#mask5_1619_12950)">
<path d="M11.5519 25.3503C11.3685 24.7959 11.2679 24.2043 11.2679 23.5933C11.2679 22.9829 11.3685 22.3912 11.5519 21.8363V19.4715H8.54439C7.92839 20.711 7.58008 22.1105 7.58008 23.5933C7.58008 25.0761 7.92839 26.4769 8.54439 27.7148L11.5519 25.3503Z" fill="#14141A"/>
</g>
<mask id="mask6_1619_12950" style="mask-type:luminance" maskUnits="userSpaceOnUse" x="0" y="-6" width="68" height="58">
<path d="M0 -5.99889H68V51.293H0V-5.99889Z" fill="white"/>
</mask>
<g mask="url(#mask6_1619_12950)">
<path d="M16.6308 18.0471C17.9652 18.0471 19.1617 18.512 20.1051 19.4238V19.4252L22.6898 16.8049C21.12 15.3234 19.0735 14.4136 16.6308 14.4136C13.0928 14.4136 10.0294 16.4721 8.53906 19.4711L11.5466 21.8358C12.2638 19.6606 14.2688 18.0471 16.6308 18.0471Z" fill="#14141A"/>
</g>
</g>
<defs>
<clipPath id="clip0_1619_12950">
<rect width="68" height="48" rx="8" fill="white"/>
</clipPath>
</defs>
</svg>
