<svg width="68" height="48" viewBox="0 0 68 48" fill="none" xmlns="http://www.w3.org/2000/svg">
<rect width="68" height="48" rx="8" fill="#BCBCC6"/>
<path d="M36.3377 21.1862L36.334 12.8844L38.4701 12.3713V13.4585C38.4701 13.4585 39.0224 12.0278 40.3054 11.6951C40.7009 11.5946 40.8997 11.6547 40.8997 11.6547V13.7729C40.8997 13.7729 40.415 13.7523 39.7809 14.0096C38.9924 14.3264 38.5947 15.0154 38.5947 16.0684L38.5969 20.6517L36.3377 21.1862Z" fill="#14141A"/>
<path d="M25.0819 23.8856C25.0819 23.8856 24.736 23.3571 24.736 21.4895V17.3561L23.6367 17.6211V15.9187L24.7375 15.6544V13.799L27.0087 13.2555V15.1109L28.6129 14.7249V16.4249L27.0087 16.8118C27.0087 16.8118 27.0064 20.1975 27.0087 21.0205C27.0087 22.9338 27.5091 23.3008 27.5091 23.3008L25.0819 23.8856Z" fill="#14141A"/>
<path d="M28.8438 18.9472C28.8438 17.4708 29.0509 16.3951 29.4958 15.5682C30.024 14.5876 30.8921 13.9488 32.1564 13.6572C34.6475 13.0824 35.5457 14.5785 35.5103 16.5838C35.4984 17.3011 35.5013 17.6513 35.5013 17.6513L31.1127 18.6974V18.7697C31.1127 20.1721 31.4031 20.8369 32.278 20.648C33.0343 20.4866 33.2444 20.0054 33.3037 19.4123C33.3141 19.3148 33.3179 19.0719 33.3179 19.0719L35.3745 18.5718C35.3745 18.5718 35.3791 18.743 35.3768 18.9334C35.3581 19.7306 35.1299 21.7078 32.2727 22.3922C29.5663 23.0447 28.8438 21.3666 28.8438 18.9472ZM32.2472 15.2028C31.5201 15.3702 31.139 16.0935 31.1225 17.2935L33.3307 16.7597C33.3344 16.7057 33.3344 16.5854 33.3344 16.3981C33.3307 15.4936 33.0545 15.0163 32.2472 15.2028Z" fill="#14141A"/>
<path d="M48.5833 14.0928C48.4986 11.5642 49.1437 9.55742 51.9229 8.91939C53.6967 8.5105 54.369 8.97799 54.7096 9.42943C55.0368 9.86113 55.1636 10.4428 55.1636 11.2575L55.1659 11.4083L52.9892 11.9329C52.9892 11.9329 52.9884 11.6343 52.9884 11.6252C52.9892 10.6583 52.7258 10.2913 52.034 10.4672C51.2116 10.6765 50.8793 11.4684 50.8793 13.0436C50.8793 13.6032 50.8823 13.7029 50.8823 13.7783C50.8823 15.3787 51.0983 16.1118 52.0453 15.9101C52.8676 15.738 52.9801 15.0048 52.9937 14.363C52.9951 14.2618 52.9996 13.939 52.9996 13.939L55.1711 13.4189C55.1711 13.4189 55.1734 13.5826 55.1734 13.7624C55.1673 15.8606 54.0779 17.1839 52.034 17.6658C49.2211 18.3359 48.6696 16.6843 48.5833 14.0928Z" fill="#14141A"/>
<path d="M41.0625 17.6315C41.0625 15.7091 42.1746 15.1008 43.8455 14.3995C45.3476 13.7692 45.3791 13.4563 45.3858 12.9073C45.3941 12.4468 45.184 12.0516 44.4359 12.245C43.7487 12.4216 43.5663 12.9279 43.5296 13.3314C43.5093 13.5483 43.5161 13.7577 43.5161 13.7577L41.4092 14.2625C41.4092 14.2625 41.3754 13.6032 41.5548 12.9987C41.8916 11.849 42.8918 11.0755 44.616 10.6705C46.8565 10.1467 47.6046 11.144 47.6083 12.6971V16.3737C47.6083 18.1524 47.9332 18.4119 47.9332 18.4119L45.8645 18.9092C45.8645 18.9092 45.671 18.5033 45.5862 18.1546C45.5862 18.1546 45.1337 19.3119 43.5723 19.685C41.9321 20.077 41.0625 19.0469 41.0625 17.6315ZM45.3723 15.0064C45.3723 15.0064 44.9416 15.3284 44.2709 15.6596C43.5821 16.0022 43.2692 16.4241 43.2692 17.0727C43.2692 17.6353 43.6136 18.0054 44.2371 17.8478C44.9071 17.6772 45.3723 17.043 45.3723 16.1629V15.0064Z" fill="#14141A"/>
<path d="M13.2112 29.7043C12.4886 29.7043 11.9004 29.1074 11.9004 28.3719C11.9004 28.1138 11.9732 27.8649 12.112 27.6463L12.1263 27.628L12.151 27.6219L15.2393 26.8826V29.2619L15.1906 29.2733C14.4905 29.4447 13.6539 29.6388 13.4806 29.6746C13.3943 29.6952 13.302 29.7043 13.2112 29.7043Z" fill="#14141A"/>
<path d="M13.2112 32.749C12.4886 32.749 11.9004 32.1543 11.9004 31.4204C11.9004 31.1591 11.9732 30.9101 12.112 30.6971L12.1263 30.6735L12.151 30.6681L15.2393 29.9281V32.3081L15.1906 32.3209C14.4905 32.4916 13.6539 32.6888 13.4806 32.7231C13.3943 32.7405 13.302 32.749 13.2112 32.749Z" fill="#14141A"/>
<path d="M13.2112 35.7999C12.4886 35.7999 11.9004 35.2037 11.9004 34.469C11.9004 34.2085 11.9732 33.9582 12.112 33.7457L12.1263 33.7213L15.2393 32.9775V35.3575L15.1906 35.3696C14.4515 35.5508 13.6298 35.739 13.4806 35.7732C13.3943 35.79 13.302 35.7999 13.2112 35.7999Z" fill="#14141A"/>
<path d="M12.8425 26.7881L12.8418 13.4721L15.2346 12.898V26.2134L12.8425 26.7881Z" fill="#14141A"/>
<path d="M18.8042 25.6549C18.8042 24.8296 18.1423 24.1573 17.329 24.1573C16.5111 24.1573 15.8516 24.8296 15.8516 25.6549L15.8531 38.1015C15.8531 40.3354 17.6463 42.1573 19.8485 42.1573C20.9657 42.1573 24.0263 42.152 24.0263 42.152L24.0278 36.9595C24.0286 34.1227 24.0294 31.2348 24.0294 31.1694C24.0294 30.5123 23.7097 29.9033 23.171 29.5371L19.4463 26.9705C19.4463 26.9705 19.4456 32.5436 19.4456 32.7986C19.4456 32.9776 19.3038 33.1238 19.1274 33.1238C18.9526 33.1238 18.8116 32.9776 18.8116 32.7986C18.8116 32.7363 18.8042 26.4246 18.8042 25.6549Z" fill="#14141A"/>
<path d="M20.7973 16.3693C19.2524 16.7309 18.6671 18.0397 18.6671 18.0397V17.104L16.5137 17.621L16.516 23.5984C16.7666 23.4971 17.0412 23.4416 17.3286 23.4416C17.8861 23.4416 18.394 23.6516 18.7835 24.0004V20.1411C18.7835 19.2168 19.2381 18.4783 19.8849 18.3336C20.3727 18.2247 20.7793 18.4021 20.7793 19.2823L20.7807 24.9132L23.049 24.3727V18.4167C23.049 16.9724 22.5027 15.9643 20.7973 16.3693Z" fill="#14141A"/>
<path d="M53.7669 7.84662C52.9948 7.84662 52.3652 7.2078 52.3652 6.42441C52.3652 5.63944 52.9948 4.99992 53.7669 4.99992C54.539 4.99992 55.1684 5.63944 55.1684 6.42441C55.1684 7.2078 54.539 7.84662 53.7669 7.84662ZM53.7669 5.17879C53.0916 5.17879 52.5401 5.7376 52.5401 6.42441C52.5401 7.11113 53.0916 7.66845 53.7669 7.66845C54.4429 7.66845 54.9929 7.11113 54.9929 6.42441C54.9929 5.7376 54.4429 5.17879 53.7669 5.17879Z" fill="#14141A"/>
<path d="M53.2598 5.57534H53.8653C54.1062 5.57534 54.3005 5.6971 54.3005 6.02142C54.3005 6.24688 54.2014 6.42049 54.0147 6.45014V6.45321C54.1842 6.47075 54.2735 6.56585 54.2825 6.81025C54.2855 6.92061 54.287 7.05694 54.2923 7.16352C54.2983 7.24879 54.338 7.28985 54.3741 7.31274H54.0656C54.0372 7.28002 54.0251 7.22897 54.0192 7.15896C54.0086 7.05466 54.0109 6.95719 54.0072 6.83078C54.0026 6.6412 53.9456 6.5583 53.7572 6.5583H53.5344V7.31274H53.2598V5.57534ZM53.752 6.3496C53.9284 6.3496 54.0251 6.24223 54.0251 6.06634C54.0251 5.88142 53.9479 5.78544 53.7671 5.78544H53.5344V6.3496H53.752Z" fill="#14141A"/>
</svg>
