<svg width="68" height="48" viewBox="0 0 68 48" fill="none" xmlns="http://www.w3.org/2000/svg">
<rect width="68" height="48" rx="8" fill="#BCBCC6"/>
<g clip-path="url(#clip0_1619_12893)">
<path d="M19.1003 29.6862H21.6098V16.0744H19.1003V29.6862ZM34.9936 21.8284V20.6197H34.9518H32.756H32.6306V29.7103H34.9936V24.9473C34.9936 23.5692 36.3321 22.9648 37.2732 23.255H37.294V20.6197C36.3321 20.5954 35.4538 21.079 34.9936 21.8284ZM26.9215 27.5826C25.6877 27.5826 24.7048 26.4947 24.7048 25.1407C24.7048 23.7869 25.7085 22.6989 26.9215 22.6989C28.1553 22.6989 29.1382 23.7869 29.1382 25.1407C29.1382 26.4947 28.1344 27.5826 26.9215 27.5826ZM29.1173 21.2241C28.4481 20.6681 27.6116 20.3537 26.7123 20.3537C24.4121 20.3537 22.5718 22.5056 22.5718 25.1409C22.5718 27.7761 24.4329 29.9278 26.7123 29.9278C27.6116 29.9278 28.4271 29.5894 29.1173 29.0574V29.6862H31.1667V20.5956H29.1173V21.2241ZM43.1913 20.3537C42.2502 20.3537 41.3509 20.6922 40.7654 21.611V20.5954H40.7236H38.5278H38.4024V29.6861H40.7654V24.7055C40.7654 23.3275 41.5602 22.6505 42.5431 22.6505C43.5677 22.6505 44.1742 23.376 44.1742 24.6814V29.6617H46.5374V23.8835C46.5373 21.8044 45.0733 20.3537 43.1913 20.3537ZM58.4573 26.4705C57.6417 26.4705 56.9725 27.2442 56.9725 28.1871C56.9725 29.13 57.6417 29.9036 58.4573 29.9036C59.2728 29.9036 59.942 29.13 59.942 28.1871C59.942 27.2199 59.2728 26.4705 58.4573 26.4705ZM51.7026 27.5826C50.4687 27.5826 49.4859 26.4947 49.4859 25.1407C49.4859 23.7869 50.4896 22.6989 51.7026 22.6989C52.9364 22.6989 53.9193 23.7869 53.9193 25.1407C53.9402 26.4947 52.9363 27.5826 51.7026 27.5826ZM53.9193 21.2241C53.2501 20.6681 52.4137 20.3537 51.5145 20.3537C49.214 20.3537 47.3737 22.5056 47.3737 25.1409C47.3737 27.7761 49.2349 29.9278 51.5145 29.9278C52.4136 29.9278 53.2292 29.5894 53.9193 29.0574V29.6862H55.9686V20.5956H53.9193V21.2241ZM57.4535 20.7647H57.5581C57.6207 20.7647 57.6626 20.8132 57.6626 20.8615C57.6626 20.934 57.6417 20.9583 57.5581 20.9583H57.4535V20.7647ZM57.4535 21.0791H57.5581L57.6626 21.3449H57.7672L57.6626 21.0791C57.7253 21.0548 57.7672 20.9823 57.7672 20.8857C57.7672 20.7647 57.6835 20.6679 57.5581 20.6679H57.3489V21.3449H57.4535V21.0791H57.4535ZM8.05859 29.6862H10.6727V16.0744H8.05859V29.6862ZM17.3855 16.0743H14.8551C14.8133 19.1449 13.2658 21.8043 11.0491 23.1099L14.9596 29.6861H18.1383L14.5832 23.7143C16.3398 21.7076 17.3437 18.9998 17.3855 16.0743ZM57.5371 20.4747C57.7881 20.4747 57.9971 20.7164 57.9971 21.0065C57.9971 21.2967 57.7881 21.5385 57.5371 21.5385C57.2862 21.5385 57.077 21.2967 57.077 21.0065C57.077 20.7164 57.2862 20.4747 57.5371 20.4747ZM57.5371 21.6593C57.8508 21.6593 58.1018 21.3692 58.1018 21.0065C58.1018 20.6438 57.8508 20.3537 57.5371 20.3537C57.2234 20.3537 56.9725 20.6438 56.9725 21.0065C56.9725 21.3692 57.2234 21.6593 57.5371 21.6593Z" fill="#14141A"/>
</g>
<defs>
<clipPath id="clip0_1619_12893">
<rect width="52" height="14" fill="white" transform="translate(7.99805 16.0001)"/>
</clipPath>
</defs>
</svg>
