<svg width="68" height="48" viewBox="0 0 68 48" fill="none" xmlns="http://www.w3.org/2000/svg">
<rect width="68" height="48" rx="8" fill="#BCBCC6"/>
<path d="M58.3615 24.3641C58.043 24.5935 57.5809 24.7068 56.9485 24.7068H56.674H56.3213L56.8022 22.023H57.046H57.2634C57.7883 22.023 58.1717 22.1103 58.4359 22.2875C58.6424 22.4264 58.8871 22.7015 58.8871 23.2235C58.8871 23.8524 58.6024 24.1908 58.3615 24.3641ZM20.9506 27.7324H16.0973L16.411 25.9781H19.4552L19.8011 24.0022H16.7862L17.0776 22.2661H21.9224L20.9506 27.7324ZM60.9759 20.7603C60.2623 20.2548 59.1825 20.0001 57.7668 20.0001H54.059L52.6808 27.7326H47.8237L48.1352 25.9784H51.0614L51.4093 24.0079L48.4848 24.0133L48.798 22.2666H51.8115L52.2124 20.0004H46.0911L44.7828 27.3359H42.5382L43.856 20.0004H40.6559L39.3476 27.3359H37.159L38.478 20.0004H35.2811L33.8994 27.7329H29.0078L29.316 25.9786H32.2555L32.6016 24.0195L29.6667 24.0167L29.9784 22.2666H33.0253L33.4242 20.0004H14.3536L13.2681 26.1282L11.1055 20.0001H7.78641L6 30.0001H9.16964L10.2507 23.7039L12.3495 30.0001H23.7104L25.0913 22.2663H26.869L25.4873 30.0001H55.381L56.2469 25.1178L57.6503 30.0001H60.8217L59.3688 26.0109L59.7004 25.9368C60.4313 25.7751 61.0034 25.4267 61.4004 24.9047C61.798 24.3778 62 23.7013 62 22.8888C62.0003 21.9424 61.6658 21.2466 60.9759 20.7603Z" fill="#14141A"/>
</svg>
