<svg width="68" height="48" viewBox="0 0 68 48" fill="none" xmlns="http://www.w3.org/2000/svg">
<rect width="68" height="48" rx="8" fill="#BCBCC6"/>
<path fill-rule="evenodd" clip-rule="evenodd" d="M32.4668 14.1993C32.4668 14.0877 32.5672 13.9984 32.6788 13.9984H32.9575L37.4055 18.2795H37.4166V14.322C37.4166 14.2104 37.5059 14.11 37.6286 14.11H38.9663C39.0779 14.11 39.1783 14.2104 39.1783 14.322V21.8246C39.1783 21.9361 39.0779 22.0254 38.9663 22.0254H38.788C38.7547 22.0254 38.6654 21.9917 38.6431 21.9695L34.2397 17.5438H34.2282V21.7019C34.2282 21.8138 34.1392 21.9139 34.0165 21.9139H32.6899C32.5784 21.9139 32.4779 21.8138 32.4779 21.7019L32.4668 14.1993Z" fill="#14141A"/>
<path fill-rule="evenodd" clip-rule="evenodd" d="M14.0004 20.2415C15.2266 20.2415 16.2303 19.2384 16.2303 18.023C16.2303 16.7965 15.2266 15.782 14.0004 15.782C12.7854 15.782 11.782 16.7965 11.782 18.023C11.782 19.2384 12.7854 20.2415 14.0004 20.2415ZM14.0004 13.9984C16.2303 13.9984 18.0139 15.7932 18.0139 18.023C18.0139 20.2526 16.2303 22.0251 14.0004 22.0251C11.7706 22.0251 9.99805 20.2526 9.99805 18.023C9.99805 15.7932 11.7706 13.9984 14.0004 13.9984Z" fill="#14141A"/>
<path fill-rule="evenodd" clip-rule="evenodd" d="M22.136 17.4559C22.6153 17.4559 23.0167 17.0767 23.0167 16.5752C23.0167 16.1071 22.6153 15.7501 22.136 15.7501H21.077V17.4559H22.136ZM19.3379 14.3235C19.3379 14.2119 19.4272 14.1115 19.5495 14.1115H22.2365C23.6075 14.1115 24.7336 15.2264 24.7336 16.5752C24.7336 17.9578 23.6075 19.0835 22.2476 19.0835H21.077V21.7033C21.077 21.8149 20.9766 21.9153 20.865 21.9153H19.5495C19.4272 21.9153 19.3379 21.8149 19.3379 21.7033V14.3235Z" fill="#14141A"/>
<path fill-rule="evenodd" clip-rule="evenodd" d="M25.9512 14.3235C25.9512 14.2119 26.0405 14.1115 26.1628 14.1115H30.7783C30.901 14.1115 30.9903 14.2119 30.9903 14.3235V15.5385C30.9903 15.6501 30.901 15.7501 30.7783 15.7501H27.6903V17.1327H30.232C30.3435 17.1327 30.444 17.2331 30.444 17.3444V18.5597C30.444 18.6824 30.3435 18.7714 30.232 18.7714H27.6903V20.2763H30.7783C30.901 20.2763 30.9903 20.3767 30.9903 20.4883V21.7033C30.9903 21.8153 30.901 21.9153 30.7783 21.9153H26.1628C26.0405 21.9153 25.9512 21.8153 25.9512 21.7033V14.3235Z" fill="#14141A"/>
<path fill-rule="evenodd" clip-rule="evenodd" d="M12.7517 31.6798C13.1865 31.6798 13.5545 31.3232 13.5545 30.8662C13.5545 30.4199 13.0749 30.0856 12.6401 30.0856H11.7372V31.6798H12.7517ZM12.6068 28.6363C13.0304 28.6363 13.387 28.2797 13.387 27.8338C13.387 27.3875 13.0304 27.0754 12.6068 27.0754H11.7372V28.6363H12.6068ZM9.99805 25.6821C9.99805 25.5705 10.0874 25.4701 10.2097 25.4701H12.8076C14.1231 25.4701 15.2043 26.373 15.2043 27.5439C15.2043 28.4024 14.4352 29.0266 13.9111 29.305C14.5019 29.5507 15.4049 30.0967 15.4049 31.1223C15.4049 32.3711 14.3011 33.274 12.9748 33.274H10.2097C10.0874 33.274 9.99805 33.1739 9.99805 33.0623V25.6821Z" fill="#14141A"/>
<path fill-rule="evenodd" clip-rule="evenodd" d="M20.6454 30.5971L19.7981 28.7575H19.7866L18.9507 30.5971H20.6454ZM16.0633 32.9827L19.5527 25.4797C19.5861 25.4127 19.6643 25.3571 19.7421 25.3571H19.8537C19.9319 25.3571 20.0097 25.4127 20.0434 25.4797L23.5328 32.9827C23.5996 33.1276 23.5103 33.2725 23.3431 33.2725H22.1058C21.9053 33.2725 21.8159 33.2058 21.7155 32.9938L21.3141 32.1131H18.2817L17.8803 33.0049C17.8247 33.1387 17.702 33.2725 17.4792 33.2725H16.2527C16.0855 33.2725 15.9966 33.1276 16.0633 32.9827Z" fill="#14141A"/>
<path fill-rule="evenodd" clip-rule="evenodd" d="M24.6172 25.5579C24.6172 25.4464 24.7176 25.3571 24.8292 25.3571H25.1079L29.5559 29.6382H29.567V25.6806C29.567 25.5691 29.6563 25.4686 29.779 25.4686H31.1167C31.2283 25.4686 31.3287 25.5691 31.3287 25.6806V33.1832C31.3287 33.2948 31.2283 33.3841 31.1167 33.3841H30.9384C30.9047 33.3841 30.8157 33.3504 30.7935 33.3281L26.3897 28.9024H26.3786V33.0605C26.3786 33.1724 26.2896 33.2725 26.1669 33.2725H24.8403C24.7288 33.2725 24.6283 33.1724 24.6283 33.0605L24.6172 25.5579Z" fill="#14141A"/>
<path fill-rule="evenodd" clip-rule="evenodd" d="M33.0371 25.7379C33.0371 25.593 33.1487 25.4703 33.3047 25.4703H34.6091C34.754 25.4703 34.8763 25.593 34.8763 25.7379V28.6698L37.3516 25.5818C37.3961 25.5259 37.4965 25.4703 37.5633 25.4703H38.9681C39.1801 25.4703 39.2913 25.7156 39.1689 25.8828L36.5602 29.1491L39.4028 32.8505C39.5255 33.0177 39.4028 33.263 39.1912 33.263H37.6526C37.5744 33.263 37.4743 33.2182 37.452 33.1849L34.8763 29.6843V33.0066C34.8763 33.1515 34.754 33.2742 34.6091 33.2742H33.3047C33.1487 33.2742 33.0371 33.1515 33.0371 33.0066V25.7379Z" fill="#14141A"/>
<path fill-rule="evenodd" clip-rule="evenodd" d="M40.6934 25.6823C40.6934 25.5708 40.7938 25.4703 40.905 25.4703H42.2431C42.3546 25.4703 42.4547 25.5708 42.4547 25.6823V33.0622C42.4547 33.1741 42.3546 33.2742 42.2431 33.2742H40.905C40.7938 33.2742 40.6934 33.1741 40.6934 33.0622V25.6823Z" fill="#14141A"/>
<path fill-rule="evenodd" clip-rule="evenodd" d="M44.1934 25.5579C44.1934 25.4464 44.2938 25.3571 44.405 25.3571H44.6841L49.1321 29.6382H49.1432V25.6806C49.1432 25.5691 49.2325 25.4686 49.3552 25.4686H50.6929C50.8045 25.4686 50.9046 25.5691 50.9046 25.6806V33.1832C50.9046 33.2948 50.8045 33.3841 50.6929 33.3841H50.5143C50.4812 33.3841 50.3919 33.3504 50.3697 33.3281L45.9659 28.9024H45.9547V33.0605C45.9547 33.1724 45.8658 33.2725 45.7427 33.2725H44.4161C44.3046 33.2725 44.2045 33.1724 44.2045 33.0605L44.1934 25.5579Z" fill="#14141A"/>
<path fill-rule="evenodd" clip-rule="evenodd" d="M56.1876 25.3669C57.1242 25.3669 58.1499 25.7572 58.9079 26.4151C59.0083 26.4929 59.0194 26.6268 58.9305 26.7157L58.0494 27.6524C57.9604 27.7306 57.8378 27.7306 57.7488 27.6635C57.3248 27.2732 56.8344 27.1283 56.288 27.1283C55.073 27.1283 54.0919 28.1542 54.0919 29.3804C54.0919 30.5958 55.0841 31.5988 56.2992 31.5988C56.6224 31.5988 56.9571 31.5543 57.2918 31.4205V30.7741H56.589C56.4667 30.7741 56.3774 30.6848 56.3774 30.5732V29.4697C56.3774 29.347 56.4667 29.2577 56.589 29.2577H58.83C58.9416 29.2577 59.0309 29.3582 59.0309 29.4697L59.0417 32.4687C59.0417 32.5243 58.9972 32.6137 58.9527 32.647C58.9527 32.647 57.8044 33.3713 56.1876 33.3713C53.9692 33.3713 52.1855 31.6099 52.1855 29.3804C52.1855 27.1505 53.9692 25.3669 56.1876 25.3669Z" fill="#14141A"/>
</svg>
