<svg width="68" height="48" viewBox="0 0 68 48" fill="none" xmlns="http://www.w3.org/2000/svg">
<rect width="68" height="48" rx="8" fill="#BCBCC6"/>
<g clip-path="url(#clip0_1619_13004)">
<path d="M22.9485 31.9812C22.1734 31.9812 21.4016 31.9812 20.6266 31.9812C20.6266 31.8901 20.6593 31.8083 20.6952 31.7234C20.8522 31.3303 21.0125 30.9341 21.1629 30.5378C21.3591 30.0347 21.5455 29.5284 21.7417 29.0221C21.9347 28.5284 22.1374 28.0378 22.3271 27.5441C22.5364 26.9938 22.7392 26.4435 22.9681 25.9026C23.0335 25.7485 23.0008 25.7045 22.8275 25.7077C22.2552 25.7202 21.6829 25.7234 21.1138 25.7045C20.9405 25.6982 20.8686 25.7454 20.813 25.9058C20.7541 26.0756 20.6952 26.2423 20.6298 26.4089C20.4336 26.9058 20.2309 27.4026 20.0379 27.8995C19.7992 28.5095 19.5735 29.1259 19.3381 29.736C19.0994 30.346 18.8475 30.9529 18.6154 31.5662C18.563 31.7014 18.478 31.8303 18.4747 31.9781C17.7128 31.9781 16.9475 31.9781 16.1855 31.9781C16.251 31.6416 16.4177 31.3397 16.5355 31.019C16.6761 30.6353 16.8363 30.258 16.9868 29.8743C17.1405 29.4781 17.2942 29.0819 17.4479 28.6856C17.5983 28.2989 17.752 27.9152 17.9024 27.5284C18.0529 27.1416 18.2 26.7548 18.3537 26.368C18.5467 25.8743 18.7462 25.3838 18.9391 24.8901C19.1353 24.3869 19.325 23.8806 19.5212 23.3743C19.7599 22.7643 20.0085 22.1542 20.2472 21.5441C20.4859 20.9341 20.7149 20.3177 20.9569 19.7077C21.1956 19.0976 21.4409 18.4875 21.6829 17.8775C22.0393 16.9812 22.7097 16.4058 23.6483 16.107C23.7072 16.0882 23.8903 16.0033 24.1683 16.0033C25.4208 16.0033 25.5974 16.0033 26.8499 16.0033C27.2063 16.0001 27.5988 16.085 27.6511 16.1039C28.194 16.3051 28.4556 16.736 28.485 17.2548C28.5014 17.5599 28.3967 17.8397 28.2823 18.1196C28.1286 18.5095 27.9847 18.9058 27.8342 19.2989C27.674 19.7202 27.5072 20.1385 27.3437 20.5599C27.1965 20.9404 27.0494 21.324 26.9022 21.7077C26.7485 22.1102 26.5915 22.5095 26.4346 22.9121C26.2776 23.3177 26.1173 23.7234 25.9604 24.129C25.8557 24.4026 25.7511 24.6794 25.6432 24.9529C25.496 25.3397 25.3488 25.7265 25.1984 26.1133C25.0447 26.5095 24.8877 26.9058 24.734 27.302C24.5836 27.6951 24.4364 28.0882 24.286 28.4781C24.0898 28.9812 23.8936 29.4844 23.6973 29.9875C23.5371 30.4026 23.3703 30.8177 23.2166 31.236C23.1185 31.4875 22.9942 31.7202 22.9485 31.9812ZM21.6567 23.8649C21.6927 23.8775 21.7156 23.8932 21.7417 23.8932C22.3631 23.8963 22.9844 23.8963 23.6058 23.8963C23.6908 23.8963 23.7497 23.8555 23.7791 23.7768C23.9557 23.3177 24.1356 22.8555 24.3154 22.3963C24.4659 22.0095 24.6163 21.6228 24.7667 21.236C24.9237 20.8303 25.0807 20.4246 25.2376 20.0158C25.3423 19.7423 25.4502 19.4655 25.5581 19.1919C25.7086 18.8051 25.8655 18.4215 26.0127 18.0347C26.0814 17.8555 26.0356 17.8051 25.8394 17.8051C25.29 17.8051 24.7373 17.8083 24.1879 17.802C24.0407 17.7989 23.959 17.8523 23.9066 17.9844C23.6548 18.6479 23.3965 19.3083 23.1381 19.9687C22.8961 20.585 22.6509 21.1982 22.4089 21.8146C22.1832 22.3869 21.9608 22.9592 21.7417 23.5347C21.6992 23.6353 21.6436 23.736 21.6567 23.8649Z" fill="#14141A"/>
<path d="M12.3149 16.0067C13.9729 16.0067 15.1927 16.0067 16.8507 16.0067C17.0731 16.0067 17.3544 16.0853 17.41 16.1042C18.0313 16.3149 18.3125 16.9187 18.2144 17.5036C18.1131 18.1105 17.8089 18.6482 17.6062 19.2206C17.4296 19.7206 17.2137 20.2048 17.0208 20.6985C16.8246 21.2017 16.6349 21.708 16.4387 22.2111C16.2327 22.7394 16.0234 23.2677 15.8108 23.7897C15.6898 24.0822 15.5426 24.3589 15.3268 24.6042C15.0325 24.9438 14.6727 25.2017 14.2803 25.4218C14.2018 25.4658 14.1528 25.5224 14.1397 25.6168C14.0874 25.9753 14.0252 26.3306 13.9631 26.686C13.8094 27.5256 13.6524 28.3652 13.4987 29.2048C13.3614 29.9627 13.2273 30.7205 13.0965 31.4784C13.067 31.6419 13.054 31.8117 13.0343 31.9753C12.2495 31.9753 11.4646 31.9753 10.6797 31.9753C10.6863 31.9124 10.6863 31.8495 10.6961 31.7866C10.7746 31.3809 10.8596 30.9753 10.9348 30.5696C11.0853 29.7772 11.2226 28.9816 11.3861 28.1922C11.445 27.9061 11.494 27.6168 11.5562 27.3275C11.6608 26.8369 11.7557 26.3432 11.8538 25.8495C11.8734 25.7489 11.8309 25.6985 11.723 25.6985C11.4384 25.7017 11.1572 25.708 10.8727 25.7111C10.7811 25.7111 10.7386 25.7551 10.7092 25.8369C10.6536 25.9941 10.5816 26.1482 10.5195 26.3055C10.3625 26.7017 10.2088 27.0979 10.0519 27.4941C9.90142 27.8746 9.75099 28.2551 9.60056 28.6356C9.45013 29.013 9.2997 29.3872 9.15253 29.7614C9.00537 30.1388 8.86802 30.5193 8.71432 30.8935C8.56716 31.252 8.41345 31.6105 8.28918 31.9784C7.52721 31.9784 6.76197 31.9784 6 31.9784C6 31.9155 6 31.8526 6 31.7897C6.04578 31.7803 6.08176 31.7583 6.09484 31.7111C6.17005 31.4533 6.29105 31.2143 6.38589 30.9627C6.484 30.7017 6.58538 30.4438 6.69003 30.186C6.847 29.796 7.00724 29.4092 7.16094 29.0193C7.31465 28.6356 7.46508 28.2489 7.61551 27.8621C7.81173 27.3683 8.01121 26.8778 8.20416 26.3841C8.35459 26.0036 8.50175 25.6199 8.65218 25.2394C8.85494 24.7331 9.0577 24.2268 9.26045 23.7174C9.40761 23.3463 9.55151 22.9753 9.69867 22.6042C9.9047 22.0885 10.1107 21.5696 10.3167 21.0539C10.5064 20.5759 10.6928 20.0948 10.8825 19.6168C11.0853 19.1105 11.288 18.6042 11.4908 18.0979C11.6477 17.708 11.8113 17.3212 11.9584 16.9281C12.0794 16.6262 12.2266 16.3275 12.3149 16.0067ZM12.4784 23.9595C12.7335 23.9595 12.9918 23.9533 13.2469 23.9627C13.3941 23.9658 13.4889 23.9092 13.538 23.7834C13.6884 23.4029 13.8356 23.0193 13.9827 22.6388C14.1299 22.2614 14.277 21.8872 14.4242 21.5099C14.5779 21.1231 14.7316 20.7394 14.882 20.3526C15.0325 19.9658 15.1829 19.579 15.3366 19.1922C15.487 18.818 15.6407 18.4438 15.7879 18.0665C15.85 17.9124 15.7944 17.8526 15.6277 17.8526C15.0979 17.8558 14.5714 17.8558 14.0416 17.8495C13.9369 17.8495 13.8813 17.8841 13.8323 17.9658C13.7603 18.0916 13.7244 18.23 13.672 18.3589C13.5183 18.7394 13.3646 19.1168 13.2142 19.4973C13.0605 19.8841 12.9166 20.2709 12.7629 20.6577C12.57 21.1451 12.3639 21.6294 12.1743 22.1199C11.965 22.6577 11.7622 23.1985 11.5333 23.73C11.4646 23.8904 11.5039 23.9564 11.687 23.9564C11.9552 23.9595 12.2168 23.9595 12.4784 23.9595Z" fill="#14141A"/>
<path d="M53.179 16.0066C53.6106 16.0066 53.7872 16.0852 53.8428 16.1041C54.4217 16.3085 54.7291 16.8431 54.6931 17.4185C54.6767 17.6921 54.5786 17.9406 54.4871 18.189C54.3432 18.5946 54.1862 18.9972 54.0358 19.3997C53.8723 19.8368 53.7087 20.2739 53.5452 20.7141C53.3948 21.1229 53.2509 21.5317 53.0972 21.9406C52.901 22.4657 52.7015 22.9909 52.5053 23.516C52.3581 23.9154 52.2142 24.3148 52.0671 24.7141C51.9559 25.0192 51.8382 25.3242 51.727 25.6292C51.6223 25.9154 51.5177 26.2016 51.4098 26.4846C51.256 26.8997 51.1056 27.3116 50.9519 27.7267C50.8473 28.0129 50.7393 28.2959 50.6314 28.5821C50.4679 29.0192 50.3011 29.4563 50.1442 29.8965C50.0624 30.1198 49.9872 30.3399 49.8596 30.5443C49.4476 31.2047 48.872 31.6638 48.1002 31.884C48.0414 31.8997 47.734 31.9814 47.1715 31.9814C45.4284 31.9814 44.4735 31.9814 42.7305 31.9814C42.7435 31.8714 42.7861 31.7707 42.8253 31.667C42.9757 31.2865 43.1196 30.9028 43.2635 30.5192C43.414 30.1104 43.5611 29.7016 43.7115 29.2928C43.911 28.7582 44.1171 28.2236 44.3198 27.689C44.4702 27.2865 44.6207 26.884 44.7711 26.4783C44.9248 26.0695 45.0818 25.6638 45.2355 25.255C45.3892 24.8462 45.5364 24.4374 45.6901 24.0286C45.883 23.516 46.0792 23.0097 46.2722 22.4972C46.4259 22.0884 46.5698 21.6795 46.7235 21.2707C46.8837 20.8368 47.0505 20.406 47.214 19.9751C47.3579 19.5915 47.4985 19.2078 47.6457 18.8242C47.8059 18.3965 47.9694 17.9689 48.1297 17.5443C48.2409 17.2487 48.3651 16.9594 48.4632 16.6607C48.5352 16.4406 48.6529 16.2362 48.6856 16.0066C50.3633 16.0066 51.5013 16.0066 53.179 16.0066ZM46.7464 30.1827C47.008 30.1827 47.2696 30.1764 47.5312 30.1858C47.6882 30.189 47.7798 30.1229 47.8288 29.9909C47.9302 29.7141 48.0283 29.4374 48.1297 29.1607C48.2834 28.7519 48.4371 28.3462 48.5908 27.9374C48.7379 27.5443 48.8818 27.1512 49.029 26.755C49.1794 26.3462 49.3266 25.9374 49.4803 25.5286C49.6307 25.1261 49.7877 24.7236 49.9349 24.3211C50.0886 23.9091 50.2357 23.4909 50.3894 23.0789C50.5856 22.5538 50.7884 22.0286 50.9846 21.5034C51.1808 20.972 51.3738 20.4374 51.57 19.906C51.8055 19.277 52.0475 18.6512 52.2862 18.0223C52.3418 17.8777 52.2927 17.8053 52.139 17.8053C51.5929 17.8022 51.05 17.8053 50.5039 17.8053C50.36 17.8053 50.275 17.8682 50.2325 18.0034C50.1409 18.2833 50.0362 18.5569 49.9316 18.8336C49.7354 19.3556 49.5326 19.8714 49.3397 20.3934C49.1827 20.8116 49.0355 21.233 48.8818 21.6512C48.6758 22.2016 48.4665 22.7519 48.2605 23.3022C48.1133 23.689 47.9694 24.0789 47.8255 24.4689C47.6686 24.8871 47.5116 25.3022 47.3546 25.7204C47.2467 26.0066 47.1453 26.2928 47.0374 26.5758C46.8804 26.994 46.7235 27.4123 46.5665 27.8273C46.4586 28.1167 46.3507 28.406 46.2427 28.6984C46.0858 29.1229 45.9222 29.5443 45.7751 29.9689C45.7162 30.1355 45.7555 30.1795 45.9386 30.1827C46.2002 30.1858 46.4717 30.1827 46.7464 30.1827Z" fill="#14141A"/>
<path d="M37.1077 16.0064C37.4184 16.0096 37.6179 16.0913 37.6735 16.1102C38.1248 16.2517 38.4943 16.7423 38.4911 17.2485C38.4911 17.5945 38.393 17.9089 38.2752 18.2234C38.115 18.6448 37.9547 19.0662 37.7945 19.4875C37.6408 19.8901 37.4871 20.2926 37.3334 20.6951C37.1862 21.0787 37.0423 21.4592 36.8952 21.8429C36.6924 22.3712 36.4897 22.9026 36.2902 23.4309C36.1365 23.8335 35.986 24.236 35.8356 24.6385C35.6492 25.1416 35.4693 25.6448 35.0736 26.0441C34.7237 26.3995 34.3182 26.6699 33.844 26.8492C33.4974 26.9813 33.1376 27.0096 32.7714 27.0096C32.1729 27.0096 31.5712 27.0127 30.9727 27.0064C30.8321 27.0064 30.7471 27.0536 30.7013 27.1762C30.5378 27.607 30.371 28.0379 30.2042 28.4687C30.0145 28.9624 29.8249 29.4592 29.6319 29.953C29.4782 30.3555 29.3245 30.758 29.1675 31.1574C29.0956 31.3366 29.0236 31.5158 28.955 31.7014C28.9125 31.7863 28.8896 31.8555 28.8372 31.975C28.0622 31.975 27.3493 31.975 26.5742 31.975C26.6233 31.8303 26.6691 31.6857 26.7247 31.5441C26.8784 31.1416 27.0353 30.7423 27.189 30.3397C27.3395 29.9467 27.4866 29.5536 27.6371 29.1636C27.7908 28.7674 27.9477 28.3712 28.0982 27.975C28.2486 27.5819 28.3958 27.1888 28.5462 26.7989C28.7032 26.3869 28.8634 25.9781 29.0204 25.5662C29.1675 25.1794 29.3147 24.7926 29.4651 24.4058C29.6679 23.8806 29.8706 23.3586 30.0701 22.8335C30.2173 22.453 30.3645 22.0693 30.5116 21.6888C30.6653 21.2863 30.819 20.8869 30.9727 20.4844C31.1232 20.0913 31.2736 19.7014 31.424 19.3083C31.5777 18.9058 31.7347 18.5064 31.8884 18.1039C32.0454 17.6982 32.2023 17.2926 32.3593 16.8838C32.4705 16.5913 32.5784 16.2957 32.6863 16.0001C34.3149 16.0064 35.4857 16.0064 37.1077 16.0064ZM35.1848 17.8492C35.1848 17.8523 35.1848 17.8523 35.1848 17.8555C34.9624 17.8555 34.7368 17.8743 34.5144 17.8492C34.3346 17.8303 34.2463 17.8932 34.1907 18.0379C34.086 18.3083 33.9846 18.5756 33.8833 18.846C33.7263 19.258 33.5726 19.6699 33.4156 20.0819C33.2684 20.4624 33.118 20.846 32.9709 21.2265C32.8106 21.6479 32.6504 22.0693 32.4901 22.4907C32.2939 23.0064 32.101 23.5221 31.9015 24.0347C31.7936 24.3177 31.6824 24.6039 31.5646 24.8838C31.4927 25.0567 31.5319 25.1228 31.7347 25.1228C32.1991 25.1228 32.6602 25.1228 33.1246 25.1228C33.3371 25.1228 33.3927 25.0756 33.4647 24.8775C33.6118 24.4718 33.7655 24.0724 33.916 23.6699C34.0664 23.2737 34.2234 22.8775 34.3771 22.4813C34.5373 22.0662 34.6943 21.6479 34.8513 21.2297C35.0017 20.8335 35.1521 20.4341 35.3026 20.0379C35.4595 19.6322 35.6165 19.2265 35.7735 18.8177C35.8749 18.5599 35.9795 18.2989 36.0743 18.0379C36.1234 17.9026 36.0645 17.8397 35.9206 17.8429C35.6721 17.8492 35.4268 17.8492 35.1848 17.8492Z" fill="#14141A"/>
<path d="M44.8558 16.0063C44.7544 16.2862 44.653 16.5692 44.5484 16.8491C44.3914 17.2705 44.2312 17.695 44.0709 18.1164C43.9172 18.5252 43.7603 18.9308 43.6066 19.3365C43.4627 19.7202 43.3188 20.1038 43.1749 20.4843C43.0146 20.912 42.8511 21.3365 42.6876 21.7642C42.5405 22.151 42.3998 22.5409 42.2527 22.9308C42.0499 23.4717 41.8406 24.0095 41.6346 24.5472C41.4874 24.934 41.3501 25.3271 41.2062 25.7139C41.059 26.1132 40.9086 26.5095 40.7549 26.9057C40.6012 27.3082 40.4508 27.7107 40.2971 28.1132C40.1335 28.5441 39.97 28.978 39.8065 29.4088C39.6168 29.9088 39.4304 30.412 39.244 30.912C39.1296 31.217 39.0118 31.5189 38.8941 31.8239C38.8745 31.8742 38.8647 31.9246 38.8712 31.978C38.1092 31.978 37.344 31.978 36.582 31.978C36.5918 31.7422 36.7227 31.5409 36.7979 31.3239C36.9875 30.7799 37.2001 30.2422 37.4029 29.7013C37.5925 29.2013 37.7855 28.7013 37.9752 28.2013C38.1779 27.6667 38.3774 27.129 38.5802 26.5944C38.7273 26.2013 38.881 25.8113 39.0315 25.4183C39.1852 25.0158 39.3356 24.6132 39.4893 24.2107C39.6888 23.6856 39.8915 23.1604 40.091 22.6384C40.2349 22.261 40.3755 21.8837 40.5194 21.5032C40.6829 21.0724 40.8497 20.6415 41.01 20.2076C41.1571 19.8145 41.301 19.4214 41.4515 19.0283C41.6084 18.6164 41.7687 18.2044 41.9256 17.7925C42.0728 17.3994 42.22 17.0063 42.3639 16.6132C42.4358 16.412 42.5405 16.2202 42.5699 16.0032C43.3319 16.0063 44.0938 16.0063 44.8558 16.0063Z" fill="#14141A"/>
<path d="M51.5586 31.9813C51.5619 31.8398 51.6338 31.7203 51.6796 31.5945C51.9314 30.9309 52.193 30.2737 52.4514 29.6133C52.713 28.9435 52.9746 28.2737 53.2362 27.6039C53.5011 26.9309 53.7628 26.2548 54.0309 25.5819C54.3154 24.8586 54.6065 24.1385 54.8877 23.4152C55.0382 23.0347 55.1755 22.6511 55.3194 22.2674C55.3292 22.236 55.3423 22.2077 55.3815 22.1982C55.4698 22.2265 55.4502 22.3052 55.4502 22.3681C55.4535 22.5473 55.4469 22.7234 55.4469 22.9026C55.4469 25.9309 55.4469 28.9561 55.4469 31.9844C54.1552 31.9813 52.8569 31.9813 51.5586 31.9813Z" fill="#23232B"/>
<path d="M61.9876 24.0882C61.86 24.1134 61.7292 24.1197 61.5984 24.1197C60.323 24.1197 59.0509 24.1197 57.7755 24.1165C57.661 24.1165 57.5139 24.148 57.4812 23.9908C57.4484 23.8209 57.5989 23.8084 57.7166 23.7706C58.5832 23.5002 59.4531 23.2235 60.3197 22.953C60.5094 22.8933 60.7056 22.8461 60.8986 22.7958C60.9378 22.7863 60.9869 22.7895 61.0065 22.7266C60.9345 22.6574 60.8397 22.6763 60.7514 22.6794C59.7605 22.6983 58.7696 22.7077 57.7787 22.7014C57.7133 22.7014 57.6479 22.7014 57.5825 22.6889C57.5204 22.6763 57.4746 22.6385 57.4746 22.5694C57.4746 22.5033 57.5139 22.4593 57.576 22.4436C57.6283 22.431 57.6839 22.4279 57.7362 22.4279C59.0378 22.4279 60.3394 22.4279 61.6409 22.4279C61.7554 22.4279 61.8698 22.4436 61.981 22.453C61.981 22.5379 61.981 22.6197 61.981 22.7046C61.497 22.8587 61.013 23.0191 60.529 23.1669C59.924 23.3524 59.3158 23.5285 58.7108 23.7109C58.6225 23.7392 58.5407 23.7832 58.4459 23.8681C58.6225 23.8681 58.7631 23.865 58.9037 23.8681C59.9306 23.8838 60.9574 23.7926 61.9843 23.8681C61.9876 23.9436 61.9876 24.0159 61.9876 24.0882Z" fill="#14141A"/>
<path d="M61.9909 18.9309C61.9843 19.0975 61.9124 19.2076 61.896 19.2485C61.7848 19.5189 61.5396 19.5912 61.2779 19.6038C60.9575 19.6195 60.637 19.6164 60.3132 19.6038C60.0647 19.5975 59.8456 19.5095 59.7115 19.3082C59.6297 19.2988 59.5872 19.3365 59.5545 19.3774C59.4106 19.5566 59.2079 19.6038 58.9888 19.607C58.5636 19.6132 58.1385 19.6101 57.7134 19.6101C57.6087 19.6101 57.4844 19.6101 57.4844 19.4717C57.4812 19.3208 57.6152 19.3271 57.7232 19.3271C58.1221 19.3239 58.5178 19.3271 58.9168 19.3271C59.3387 19.3271 59.5022 19.1698 59.5055 18.7705C59.5055 18.6698 59.5087 18.5724 59.5022 18.4717C59.4956 18.3743 59.4433 18.3302 59.3289 18.3334C58.7893 18.3428 58.2497 18.3428 57.7134 18.3428C57.6022 18.3428 57.491 18.3208 57.491 18.1887C57.491 18.0598 57.6022 18.0378 57.7166 18.0378C59.0443 18.0378 60.3721 18.0378 61.7031 18.0378C61.8012 18.0378 61.8993 18.0346 61.9941 18.0378C61.9909 18.4183 61.9909 18.5661 61.9909 18.9309ZM60.7089 19.3334C60.928 19.3334 61.0817 19.3334 61.2322 19.3334C61.2485 19.3334 61.2649 19.3334 61.2812 19.3302C61.5526 19.3019 61.69 19.1604 61.7031 18.8994C61.7063 18.7799 61.7096 18.6573 61.7129 18.5378C61.7162 18.3774 61.6802 18.346 61.5167 18.346C60.9934 18.346 60.4702 18.3491 59.9469 18.3397C59.8325 18.3365 59.7802 18.3805 59.7769 18.478C59.7703 18.6415 59.7573 18.8051 59.7965 18.9623C59.839 19.129 59.9371 19.2516 60.1235 19.2988C60.3426 19.3585 60.5585 19.3239 60.7089 19.3334Z" fill="#14141A"/>
<path d="M61.9909 31.3176C61.9843 31.4842 61.9124 31.5943 61.896 31.6352C61.7848 31.9056 61.5396 31.978 61.2779 31.9905C60.9575 32.0063 60.637 32.0031 60.3132 31.9905C60.0647 31.9842 59.8456 31.8962 59.7115 31.6949C59.6297 31.6855 59.5872 31.7232 59.5545 31.7641C59.4106 31.9434 59.2079 31.9905 58.9888 31.9937C58.5636 32 58.1385 31.9968 57.7134 31.9968C57.6087 31.9968 57.4844 31.9968 57.4844 31.8585C57.4812 31.7075 57.6152 31.7138 57.7232 31.7138C58.1221 31.7107 58.5178 31.7138 58.9168 31.7138C59.3387 31.7138 59.5022 31.5566 59.5055 31.1572C59.5055 31.0566 59.5087 30.9591 59.5022 30.8585C59.4956 30.761 59.4433 30.7169 59.3289 30.7201C58.7893 30.7295 58.2497 30.7295 57.7134 30.7295C57.6022 30.7295 57.491 30.7075 57.491 30.5754C57.491 30.4465 57.6022 30.4245 57.7166 30.4245C59.0443 30.4245 60.3721 30.4245 61.7031 30.4245C61.8012 30.4245 61.8993 30.4213 61.9941 30.4245C61.9909 30.8019 61.9909 30.9528 61.9909 31.3176ZM60.7089 31.7169C60.928 31.7169 61.0817 31.7169 61.2322 31.7169C61.2485 31.7169 61.2649 31.7169 61.2812 31.7138C61.5526 31.6855 61.69 31.544 61.7031 31.283C61.7063 31.1635 61.7096 31.0408 61.7129 30.9213C61.7162 30.761 61.6802 30.7295 61.5167 30.7295C60.9934 30.7295 60.4702 30.7327 59.9469 30.7232C59.8325 30.7201 59.7802 30.7641 59.7769 30.8616C59.7703 31.0251 59.7573 31.1886 59.7965 31.3459C59.839 31.5125 59.9371 31.6352 60.1235 31.6824C60.3426 31.7421 60.5585 31.7075 60.7089 31.7169Z" fill="#14141A"/>
<path d="M61.9894 25.7234C61.9861 25.8303 61.9109 25.9467 61.888 25.9844C61.7605 26.2108 61.5316 26.2643 61.2928 26.2831C61.0966 26.2989 60.9004 26.2863 60.7042 26.2894C60.5995 26.2894 60.5178 26.2548 60.5178 26.1385C60.5178 26.0253 60.6061 26.0064 60.7009 26.0033C60.8742 26.0001 61.0508 26.0064 61.2241 26.0033C61.5871 25.997 61.7278 25.8586 61.731 25.5158C61.7343 25.1007 61.6002 24.9718 61.1686 24.9687C60.3902 24.9655 60.3837 24.9687 59.9259 25.5693C59.8049 25.7297 59.6773 25.8869 59.5367 26.0347C59.3634 26.2108 59.1508 26.2863 58.9088 26.2894C58.6537 26.2957 58.3954 26.2957 58.1403 26.2894C57.725 26.2831 57.4699 26.0441 57.447 25.6448C57.4372 25.4718 57.4339 25.302 57.4928 25.1322C57.5876 24.8492 57.8002 24.7171 58.088 24.6951C58.3594 24.6762 58.6341 24.6888 58.9055 24.6888C59.0036 24.6888 59.1017 24.7108 59.0985 24.8303C59.0952 24.9498 58.9938 24.9655 58.899 24.9655C58.6603 24.9687 58.4183 24.9655 58.1795 24.9655C57.9048 24.9687 57.7315 25.1259 57.7152 25.3901C57.7086 25.4687 57.7086 25.5473 57.7184 25.6259C57.7413 25.8429 57.8689 25.9718 58.0912 26.0033C58.3823 26.0441 58.6766 26.041 58.9709 26.0001C59.1508 25.975 59.2816 25.8869 59.3895 25.7517C59.5727 25.5221 59.7591 25.2989 59.9389 25.0693C60.1417 24.8083 60.4131 24.6919 60.7434 24.6888C60.9298 24.6857 61.113 24.6825 61.2994 24.6919C61.5414 24.7045 61.7637 24.7643 61.8978 24.9844C61.9207 25.0221 61.9861 25.1039 61.9992 25.2265C61.9992 25.5001 61.9992 25.3869 61.9894 25.7234Z" fill="#14141A"/>
<path d="M61.9902 21.1638C61.3492 21.2802 60.7082 21.3965 60.0673 21.5098C59.7402 21.5664 59.4132 21.6198 59.0862 21.6764C58.697 21.7456 58.3079 21.8179 57.9154 21.8871C57.8337 21.9028 57.7552 21.9154 57.6734 21.9217C57.5917 21.928 57.4968 21.9311 57.4838 21.8242C57.4707 21.7142 57.5557 21.6827 57.6473 21.667C57.8304 21.6324 58.0103 21.6041 58.1934 21.5695C58.4321 21.5255 58.4321 21.5255 58.4321 21.2991C58.4321 21.101 58.4289 20.8997 58.4354 20.7016C58.4387 20.5789 58.3831 20.5223 58.2588 20.5035C58.0593 20.4783 57.8631 20.4406 57.6636 20.4091C57.5622 20.3934 57.4739 20.3525 57.4903 20.2425C57.5066 20.1198 57.6113 20.1261 57.7061 20.145C58.4191 20.2676 59.1287 20.3934 59.8416 20.5192C60.5055 20.6355 61.1726 20.7362 61.8299 20.8745C61.8823 20.884 61.9379 20.8808 61.9934 20.884C61.9902 20.9752 61.9902 21.0695 61.9902 21.1638ZM61.1105 21.0286C61.0778 20.9563 61.0156 20.9563 60.9568 20.9469C60.2668 20.8368 59.5735 20.7267 58.8834 20.6135C58.769 20.5947 58.7068 20.6355 58.7036 20.7362C58.6938 20.9406 58.6938 21.145 58.7036 21.3494C58.7068 21.4406 58.769 21.4815 58.8736 21.4626C59.5277 21.3525 60.1817 21.2456 60.8325 21.1355C60.9306 21.1135 61.0385 21.1135 61.1105 21.0286Z" fill="#14141A"/>
<path d="M61.9903 29.8743C61.7091 29.8617 61.7026 29.8585 61.7026 29.5818C61.7026 29.4026 61.6993 29.2265 61.7026 29.0472C61.7058 28.9089 61.6404 28.8648 61.5031 28.868C61.0289 28.8711 60.5547 28.8743 60.0838 28.868C59.9464 28.868 59.9006 28.9277 59.9006 29.0472C59.9006 29.2516 59.9006 29.456 59.9006 29.6604C59.9006 29.7548 59.8908 29.846 59.76 29.8428C59.639 29.8397 59.6325 29.7516 59.6325 29.6636C59.6325 29.4592 59.6325 29.2548 59.6325 29.0504C59.6325 28.9214 59.5802 28.8648 59.4363 28.8648C58.9523 28.8711 58.4683 28.8648 57.9843 28.868C57.7815 28.868 57.7455 28.9057 57.7423 29.0975C57.7423 29.2862 57.7423 29.4749 57.7423 29.6636C57.7423 29.7579 57.7455 29.8711 57.6049 29.868C57.4774 29.8648 57.4774 29.7611 57.4741 29.6699C57.4741 29.3806 57.4708 29.0944 57.4741 28.8051C57.4774 28.6258 57.5199 28.585 57.7096 28.585C59.0373 28.585 60.365 28.585 61.696 28.585C61.7941 28.585 61.8922 28.6007 61.9871 28.6101C61.9903 29.0378 61.9903 29.456 61.9903 29.8743Z" fill="#14141A"/>
<path d="M61.9908 28.1133C61.7096 28.1008 61.7031 28.0976 61.7031 27.8209C61.7031 27.6574 61.6998 27.497 61.7063 27.3335C61.7129 27.1951 61.6638 27.1322 61.5101 27.1322C61.0359 27.1385 60.5617 27.1385 60.0876 27.1322C59.9469 27.1291 59.9011 27.1951 59.9011 27.3115C59.8979 27.5064 59.9011 27.6983 59.9011 27.8932C59.9011 27.9876 59.8979 28.0819 59.7638 28.0819C59.6297 28.0819 59.6297 27.9844 59.6297 27.8901C59.6297 27.7014 59.6297 27.5127 59.6297 27.324C59.6297 27.1888 59.5709 27.1291 59.4204 27.1322C58.8645 27.1385 58.3085 27.1354 57.7526 27.1354C57.6414 27.1354 57.491 27.1574 57.4844 27.0033C57.4812 26.8366 57.6381 26.8586 57.7526 26.8586C59.0542 26.8586 60.359 26.8586 61.6606 26.8586C61.7717 26.8586 61.8764 26.8712 61.9843 26.8901C61.9908 27.2957 61.9908 27.7045 61.9908 28.1133Z" fill="#14141A"/>
<path d="M61.9921 17.6733C61.7141 17.6701 61.7011 17.6607 61.7076 17.384C61.7141 16.9437 61.7796 16.9814 61.2792 16.9814C60.1117 16.9814 58.9475 16.9814 57.78 16.9814C57.7146 16.9814 57.6492 16.9783 57.5871 16.9657C57.5249 16.9531 57.4824 16.906 57.4824 16.8399C57.4824 16.7676 57.5249 16.7204 57.5969 16.7078C57.6492 16.6984 57.7048 16.6984 57.7604 16.6984C58.9933 16.6984 60.2229 16.6984 61.4558 16.6984C61.6978 16.6984 61.7174 16.6795 61.7109 16.4468C61.7043 16.299 61.7043 16.1544 61.7011 16.0066C61.7992 16.0066 61.8973 16.0066 61.9954 16.0066C61.9921 16.5632 61.9921 17.1198 61.9921 17.6733Z" fill="#14141A"/>
</g>
<defs>
<clipPath id="clip0_1619_13004">
<rect width="56" height="16" fill="white" transform="translate(6 16.0001)"/>
</clipPath>
</defs>
</svg>
