<svg width="68" height="48" viewBox="0 0 68 48" fill="none" xmlns="http://www.w3.org/2000/svg">
<rect width="68" height="48" rx="8" fill="#BCBCC6"/>
<path d="M19.3359 18.7656C21.6214 18.7657 22.8536 19.1134 23.915 19.4756L23.9688 19.4912V22.4629L23.9287 22.4521C23.5026 22.2762 23.002 22.1035 23.002 22.1035C22.1029 21.8407 20.8459 21.5606 19.874 21.5605C19.3214 21.5605 17.8486 21.5609 17.8486 22.6455C17.8489 23.5438 18.8717 23.6088 19.3135 23.6367C22.5534 23.8487 24.4851 25.3967 24.4854 27.7783C24.4854 29.8798 22.7582 31.9999 18.9062 32C17.1202 32 15.5957 31.8284 14.2441 31.4814V28.4229C15.1467 28.7851 16.6341 29.165 18.166 29.165C19.564 29.165 20.3955 28.7134 20.3955 27.9463C20.3954 27.0176 19.3796 26.9604 18.9961 26.9375C14.484 26.6375 13.998 24.0317 13.998 22.9258C13.9981 21.0051 15.395 18.7656 19.3359 18.7656ZM28.9736 25.6055C30.3279 24.0068 30.8863 22.4637 30.9639 22.2715H35.0908C34.9732 22.6383 34.2369 24.8505 32.5586 26.9277C32.5626 26.9346 34.4277 30.1269 34.8545 31.8594H30.5342C30.532 31.8497 30.0162 29.5531 28.9736 28.0264V31.8594H25.3652V19.4619L28.9736 18.7656V25.6055ZM40.4492 22.1416C40.4539 22.1414 41.034 22.1201 41.377 22.1914V24.9912C39.3296 25.0601 39.1035 25.7816 39.1035 27.4648V31.8594H35.5781V26.4717C35.5782 23.6588 37.2192 22.2432 40.4492 22.1416ZM45.918 31.8594H42.4219V22.2822H45.918V31.8594ZM50.8906 31.8594H47.3965V19.376L50.8906 18.7656V31.8594ZM56 31.8594H52.5039V19.376L56 18.7656V31.8594ZM44.168 18C45.1203 18 45.8916 18.7537 45.8916 19.6826C45.8915 20.612 45.1203 21.3643 44.168 21.3643C43.2174 21.3642 42.4454 20.612 42.4453 19.6826C42.4453 18.7537 43.2173 18.0001 44.168 18Z" fill="#14141A"/>
</svg>
