<svg width="68" height="48" viewBox="0 0 68 48" fill="none" xmlns="http://www.w3.org/2000/svg">
<rect width="68" height="48" rx="8" fill="#BCBCC6"/>
<path d="M46.14 12.3905L46.1533 15.8392C46.7214 15.8275 47.2934 15.8156 47.8522 15.8153L47.8387 12.3897L49.967 12.3876L49.981 15.9067C52.6434 16.1398 54.772 16.9442 55.1325 19.3004L55.162 19.5337C55.3498 21.3899 54.5819 22.5045 53.3507 23.1388C55.384 23.629 56.6615 24.8438 56.4214 27.567C56.1248 30.9478 53.6237 31.8565 50.0465 32.0653L50.0601 35.6188L47.9315 35.62L47.918 32.1148C47.3666 32.1157 46.8012 32.1107 46.2181 32.0988L46.2318 35.621L44.1061 35.6214L44.0911 32.0623C43.5938 32.0593 43.0859 32.0507 42.5705 32.0504L39.8005 32.052L40.2126 29.4931C40.2126 29.4931 41.7875 29.5164 41.7602 29.4921C42.3624 29.4907 42.5207 29.0559 42.5574 28.7828L42.5359 23.1659L42.7595 23.166C42.6719 23.154 42.5945 23.1513 42.5352 23.151L42.5187 19.1421C42.4359 18.7074 42.1525 18.2044 41.2907 18.2046C41.3156 18.1757 39.7745 18.2054 39.7453 18.206L39.7353 15.9185L42.6706 15.9176L42.6713 15.9285C43.1123 15.9279 43.5646 15.9196 44.0251 15.9098L44.0123 12.3914L46.14 12.3905ZM46.2585 29.5075C47.7022 29.5058 52.2277 29.8049 52.2166 27.1453C52.2039 24.3716 47.6823 24.7918 46.2394 24.7923L46.2585 29.5075ZM46.2268 22.6344C47.4292 22.6335 51.2033 22.9131 51.1943 20.4934C51.1844 17.9694 47.4115 18.3569 46.2095 18.3578L46.2268 22.6344Z" fill="#13131A"/>
<path d="M18.344 23.0748V18.7718H12.5078V15.0001H28.8163V18.8249H22.9801V23.0748H18.344Z" fill="#13131A"/>
<path d="M20.5264 20.9499C26.3625 20.9499 31.0537 22.1191 31.0537 23.5534C31.0527 24.9875 26.3618 26.1559 20.5264 26.1559C14.6911 26.1559 10.0011 24.9875 10 23.5534C10 22.1191 14.6904 20.9499 20.5264 20.9499ZM20.5273 21.3747C14.4197 21.3747 11.2559 22.9678 10.873 23.5524C11.2549 24.0837 14.4185 24.8806 20.5273 24.8806C26.6906 24.8805 29.7998 24.0837 30.1816 23.5524C29.7995 23.0211 26.6356 21.3747 20.5273 21.3747Z" fill="#13131A"/>
<path d="M22.9801 24.403V21.4281C22.2165 21.375 21.3983 21.3218 20.5802 21.3218C19.8166 21.3218 19.1075 21.3218 18.3984 21.375V24.3498C19.053 24.3498 19.8166 24.403 20.5802 24.403C21.3983 24.4561 22.2165 24.4561 22.9801 24.403Z" fill="#13131A"/>
<path d="M20.5255 26.1559C19.7619 26.1559 19.0528 26.1559 18.3438 26.1027V34.0181H22.9254V26.0496C22.1618 26.1027 21.3436 26.1559 20.5255 26.1559Z" fill="#13131A"/>
</svg>
