<svg width="68" height="48" viewBox="0 0 68 48" fill="none" xmlns="http://www.w3.org/2000/svg">
<rect width="68" height="48" rx="8" fill="#BCBCC6"/>
<path d="M40.4837 12.6008C40.4838 12.0595 41.114 11.7954 41.4704 12.1872L51.8419 23.5861C52.0527 23.8179 52.0527 24.1822 51.8419 24.4139L41.4704 35.8129C41.114 36.2046 40.484 35.9404 40.4837 35.3993V24.5235C40.4797 24.528 40.4762 24.5331 40.472 24.5375L29.7248 35.8C29.5013 36.0342 29.1389 36.0342 28.9154 35.8L18.1676 24.5375C17.9441 24.3033 17.9441 23.9235 18.1676 23.6892L28.9154 12.4262C29.1389 12.1922 29.5014 12.1921 29.7248 12.4262L40.472 23.6892C40.4761 23.6936 40.4798 23.6983 40.4837 23.7027V12.6008Z" fill="#14141A"/>
</svg>
