<svg width="68" height="48" viewBox="0 0 68 48" fill="none" xmlns="http://www.w3.org/2000/svg">
<rect width="68" height="48" rx="8" fill="#BCBCC6"/>
<path fill-rule="evenodd" clip-rule="evenodd" d="M24.0454 17.9077H20.8385L18.4338 8.5984C18.3196 8.17017 18.0773 7.7916 17.7208 7.61317C16.8311 7.16477 15.8507 6.80792 14.7813 6.62794V6.26953H19.9473C20.6603 6.26953 21.195 6.80792 21.2841 7.43319L22.5319 14.1483L25.7372 6.26953H28.855L24.0454 17.9077ZM30.64 17.9077H27.6113L30.1052 6.26953H33.1339L30.64 17.9077ZM37.0488 9.49252C37.1379 8.8657 37.6726 8.50729 38.2965 8.50729C39.2768 8.4173 40.3448 8.59728 41.236 9.04413L41.7707 6.53839C40.8795 6.17998 39.8991 6 39.0095 6C36.07 6 33.931 7.61205 33.931 9.84938C33.931 11.5514 35.4461 12.4451 36.5156 12.9835C37.6726 13.5203 38.1182 13.8787 38.0291 14.4156C38.0291 15.2208 37.1379 15.5792 36.2482 15.5792C35.1787 15.5792 34.1092 15.3108 33.1304 14.8624L32.5957 17.3697C33.6652 17.8166 34.8222 17.9965 35.8917 17.9965C39.1877 18.085 41.236 16.4745 41.236 14.0572C41.236 11.013 37.0488 10.8346 37.0488 9.49252ZM51.839 17.9077L49.4342 6.26953H46.8512C46.3164 6.26953 45.7817 6.62794 45.6034 7.16477L41.1504 17.9077H44.2682L44.8905 16.2072H48.7212L49.0777 17.9077H51.839ZM47.2918 9.40393L48.1814 13.7901H45.6876L47.2918 9.40393Z" fill="#14141A"/>
<path d="M40.8418 24C45.684 24 49.6094 28.0295 49.6094 33C49.6093 37.9704 45.684 42 40.8418 42C38.6701 42 36.6847 41.1871 35.1533 39.8447C33.6219 41.1871 31.6365 42 29.4648 42C24.6227 42 20.6973 37.9704 20.6973 33C20.6973 28.0295 24.6226 24 29.4648 24C31.6361 24 33.622 24.8114 35.1533 26.1533C36.6846 24.8114 38.6705 24 40.8418 24Z" fill="#14141A"/>
<path d="M40.8369 24C45.6792 24 49.6045 28.0295 49.6045 33C49.6044 37.9704 45.6791 42 40.8369 42C38.6652 42 36.6799 41.1871 35.1484 39.8447C37.0317 38.194 38.2275 35.7413 38.2275 33C38.2275 30.2583 37.0322 27.804 35.1484 26.1533C36.6798 24.8114 38.6656 24 40.8369 24Z" fill="#4C4C5C"/>
<path d="M35.1475 26.1543C37.0309 27.805 38.2266 30.2585 38.2266 33C38.2265 35.7412 37.0307 38.194 35.1475 39.8447C33.2642 38.194 32.0684 35.7412 32.0684 33C32.0684 30.2586 33.264 27.805 35.1475 26.1543Z" fill="#23232B"/>
</svg>
