<svg width="100" height="16" viewBox="0 0 100 16" fill="none" xmlns="http://www.w3.org/2000/svg">
<path d="M88.1194 6.2368L88.3252 4.27429H98.2909L98.7023 0H84.6153L80.41 3.52187L79.7765 9.78286H89.7194L89.5194 11.7486H79.5709L79.1367 16H93.2546L97.4217 12.5104L98.0852 6.2368H88.1194Z" fill="white"/>
<path fill-rule="evenodd" clip-rule="evenodd" d="M59.3862 16L60.9862 0H74.581L78.7626 3.52L77.9322 11.7472L67.6906 11.7488L67.2666 16H59.3862ZM70.3706 4.27437H68.4324L67.8874 9.784H69.8122L70.3706 4.27437Z" fill="white"/>
<path d="M40.7182 0H59.3924L57.7924 16H49.4266L49.8609 11.7257H47.9178L47.4906 16H39.1181L40.7182 0ZM50.0378 9.784C50.0836 9.31162 50.3181 7.06286 50.3637 6.60571C50.3943 6.20952 50.4324 5.7981 50.4781 5.37142C50.5237 4.94477 50.5618 4.57904 50.5924 4.27429H48.6634L48.1114 9.784H50.0378Z" fill="white"/>
<path d="M30.0575 0H22.0575L20.8002 12.456L24.9706 16H37.5319L37.9433 11.7257H28.8919L30.0575 0Z" fill="white"/>
<path d="M19.7695 6.92571L20.4553 0H6.03063L1.78896 3.524L0.546631 16H15.0166L19.2391 12.4617L19.5638 8.89142H11.2209L10.9238 11.7257H8.98092L9.71234 4.27429H11.6554L11.3898 6.92571H19.7695Z" fill="white"/>
</svg>
